<?xml version="1.0" encoding="UTF-8" standalone="no"?>
<!DOCTYPE svg PUBLIC "-//W3C//DTD SVG 1.0//EN" "http://www.w3.org/TR/2001/REC-SVG-20010904/DTD/svg10.dtd">
<!-- Created with Inkscape (http://www.inkscape.org/) -->
<svg
   xmlns:svg="http://www.w3.org/2000/svg"
   xmlns="http://www.w3.org/2000/svg"
   version="1.0"
   width="1000"
   height="360"
   id="svg2584">
  <defs
     id="defs2586" />
  <g
     id="layer1">
    <g
       transform="matrix(1.2542494,0,0,1.2542494,-0.7006216,9.0657607)"
       id="g2617">
      <text
         x="274.39294"
         y="80.339226"
         transform="scale(1.0005767,0.9994236)"
         id="text13"
         style="font-size:68.47637939px">
        <tspan
           x="274.39294 312.04358 341.13962 367.41214 396.62357 422.89606 449.16858 478.38 507.59155 518.88049 548.09186 562.82355 597.8606 627.07208 644.58008 656.26263 682.53503 700.04309 729.25452 758.46594"
           y="80.339226"
           id="tspan15"
           style="font-size:52.48200607px;font-variant:normal;font-weight:normal;font-stretch:normal;writing-mode:lr-tb;fill:#000000;fill-opacity:1;fill-rule:nonzero;stroke:none;font-family:Arial;-inkscape-font-specification:Arial">Hochschule Karlsruhe</tspan>
      </text>
      <text
         x="279.18527"
         y="134.84184"
         transform="scale(1.0005805,0.9994198)"
         id="text17"
         style="font-size:68.47612762px">
        <tspan
           x="279.18527 310.00925 337.39011 362.37616 390.14453 417.52539 428.8136 453.79965 467.5025 495.27087 523.03925 550.80762 564.16766 611.42206 622.0296 638.71857 652.07861 677.06476 702.05066 729.81909 757.5874 771.54382"
           y="134.84184"
           id="tspan19"
           style="font-size:49.68399429px;font-variant:normal;font-weight:normal;font-stretch:normal;writing-mode:lr-tb;fill:#000000;fill-opacity:1;fill-rule:nonzero;stroke:none;font-family:Arial;-inkscape-font-specification:Arial">Technik und Wirtschaft</tspan>
      </text>
      <text
         x="274.39203"
         y="175.97517"
         transform="scale(1.0005802,0.9994201)"
         id="text21"
         style="font-size:68.47614288px">
        <tspan
           x="274.39203 295.19312 316.41522 324.32269 343.52661 363.38385 384.18494 403.70242 411.60989 429.75961 448.96353 456.84198 479.78616 497.5961 505.47458 524.99207 544.19598 563.3999 579.83044 587.73798 606.94183 628.50647 636.38501 655.90253 676.78186 685.00311 704.17792 724.97894 746.54376 765.74762"
           y="175.97517"
           id="tspan23"
           style="font-size:29.03959274px;font-variant:normal;font-weight:normal;font-stretch:normal;writing-mode:lr-tb;fill:#e20a17;fill-opacity:1;fill-rule:nonzero;stroke:none;font-family:Arial;-inkscape-font-specification:Arial">UNIVERSITY OF APPLIED SCIENCES</tspan>
      </text>
      <path
         d="M 61.809516,195.74445 L 61.46694,198.48509 L 65.577891,198.48509 L 66.605628,195.74445 L 61.809516,195.74445"
         id="path25"
         style="fill:#e20a17;fill-opacity:1;fill-rule:evenodd;stroke:none" />
      <path
         d="M 183.08263,74.471351 L 214.94251,191.97608 L 51.189555,233.77077 L 63.864991,196.42961 M 183.08263,74.471351 L 240.63597,183.06902 L 99.150673,265.97323 L 107.71517,195.74445"
         id="path27"
         style="fill:none;stroke:#e20a17;stroke-width:4.01959801;stroke-linecap:butt;stroke-linejoin:round;stroke-miterlimit:10;stroke-dasharray:none;stroke-opacity:1" />
      <path
         d="M 110.11322,195.40187 L 183.76778,195.74445 L 183.76778,73.78619 C 162.98464,76.389798 141.05956,69.566752 127.92735,52.546269 L 110.11322,195.40187"
         id="path29"
         style="fill:#e20a17;fill-opacity:1;fill-rule:evenodd;stroke:none" />
      <path
         d="M 66.605628,195.74445 L 106.00227,195.74445 L 124.84413,42.268886 C 133.80257,56.286094 148.38505,67.402792 164.92592,70.360402 C 148.18521,65.604256 130.11985,46.579677 123.13123,30.963766 C 106.83588,85.930629 84.265596,141.34285 66.605628,195.74445"
         id="path31"
         style="fill:#e20a17;fill-opacity:1;fill-rule:evenodd;stroke:none" />
      <path
         d="M 62.152103,195.74445 L 12.478086,195.74445 L 129.64024,4.5851529 C 129.57744,35.39446 150.98864,60.751044 178.97167,71.730715 C 154.5115,68.71601 129.74302,42.274596 122.78867,19.658647 L 62.152103,195.74445"
         id="path33"
         style="fill:#e20a17;fill-opacity:1;fill-rule:evenodd;stroke:none" />
      <path
         d="M 106.00227,195.74445 L 110.11322,195.74445 L 109.77063,198.48509 L 105.65969,198.1425 L 106.00227,195.74445"
         id="path35"
         style="fill:#e20a17;fill-opacity:1;fill-rule:evenodd;stroke:none" />
      <path
         d="M 61.809516,195.74445 L 61.46694,198.48509 L 65.577891,198.48509 L 66.605628,195.74445 L 61.809516,195.74445"
         id="path37"
         style="fill:#e20a17;fill-opacity:1;fill-rule:evenodd;stroke:none" />
      <path
         d="M 183.08263,74.471351 L 214.94251,191.97608 L 51.189555,233.77077 L 63.864991,196.42961 M 183.08263,74.471351 L 240.63597,183.06902 L 99.150673,265.97323 L 107.71517,195.74445"
         id="path39"
         style="fill:none;stroke:#e20a17;stroke-width:4.01959801;stroke-linecap:butt;stroke-linejoin:round;stroke-miterlimit:10;stroke-dasharray:none;stroke-opacity:1" />
      <path
         d="M 110.11322,195.40187 L 183.76778,195.74445 L 183.76778,73.78619 C 162.98464,76.389798 141.05956,69.566752 127.92735,52.546269 L 110.11322,195.40187"
         id="path41"
         style="fill:#e20a17;fill-opacity:1;fill-rule:evenodd;stroke:none" />
      <path
         d="M 66.605628,195.74445 L 106.00227,195.74445 L 124.84413,42.268886 C 133.80257,56.286094 148.38505,67.402792 164.92592,70.360402 C 148.18521,65.604256 130.11985,46.579677 123.13123,30.963766 C 106.83588,85.930629 84.265596,141.34285 66.605628,195.74445"
         id="path43"
         style="fill:#e20a17;fill-opacity:1;fill-rule:evenodd;stroke:none" />
      <path
         d="M 62.152103,195.74445 L 12.478086,195.74445 L 129.64024,4.5851529 C 129.57744,35.39446 150.98864,60.751044 178.97167,71.730715 C 154.5115,68.71601 129.74302,42.274596 122.78867,19.658647 L 62.152103,195.74445"
         id="path45"
         style="fill:#e20a17;fill-opacity:1;fill-rule:evenodd;stroke:none" />
      <path
         d="M 106.00227,195.74445 L 110.11322,195.74445 L 109.77063,198.48509 L 105.65969,198.1425 L 106.00227,195.74445"
         id="path47"
         style="fill:#e20a17;fill-opacity:1;fill-rule:evenodd;stroke:none" />
      <path
         d="M 183.08263,74.471351 L 214.94251,191.97608 L 51.189555,233.77077 L 63.864991,196.42961 M 183.08263,74.471351 L 240.63597,183.06902 L 99.150673,265.97323 L 107.71517,195.74445"
         id="path49"
         style="fill:none;stroke:#e20a17;stroke-width:4.01959801;stroke-linecap:butt;stroke-linejoin:round;stroke-miterlimit:10;stroke-dasharray:none;stroke-opacity:1" />
      <path
         d="M 110.11322,195.40187 L 183.76778,195.74445 L 183.76778,73.78619 C 162.98464,76.389798 141.05956,69.566752 127.92735,52.546269 L 110.11322,195.40187"
         id="path51"
         style="fill:#e20a17;fill-opacity:1;fill-rule:evenodd;stroke:none" />
      <path
         d="M 66.605628,195.74445 L 106.00227,195.74445 L 124.84413,42.268886 C 133.80257,56.286094 148.38505,67.402792 164.92592,70.360402 C 148.18521,65.604256 130.11985,46.579677 123.13123,30.963766 C 106.83588,85.930629 84.265596,141.34285 66.605628,195.74445"
         id="path53"
         style="fill:#e20a17;fill-opacity:1;fill-rule:evenodd;stroke:none" />
      <path
         d="M 62.152103,195.74445 L 12.478086,195.74445 L 129.64024,4.5851529 C 129.57744,35.39446 150.98864,60.751044 178.97167,71.730715 C 154.5115,68.71601 129.74302,42.274596 122.78867,19.658647 L 62.152103,195.74445"
         id="path55"
         style="fill:#e20a17;fill-opacity:1;fill-rule:evenodd;stroke:none" />
      <path
         d="M 106.00227,195.74445 L 110.11322,195.74445 L 109.77063,198.48509 L 105.65969,198.1425 L 106.00227,195.74445"
         id="path57"
         style="fill:#e20a17;fill-opacity:1;fill-rule:evenodd;stroke:none" />
    </g>
  </g>
</svg>
